<?xml version="1.0" standalone="no"?>
<!DOCTYPE svg PUBLIC "-//W3C//DTD SVG 20010904//EN"
 "http://www.w3.org/TR/2001/REC-SVG-20010904/DTD/svg10.dtd">
<svg version="1.0" xmlns="http://www.w3.org/2000/svg"
 width="1024.000000pt" height="1024.000000pt" viewBox="0 0 1024.000000 1024.000000"
 preserveAspectRatio="xMidYMid meet">
<metadata>
Created by potrace 1.11, written by Peter Selinger 2001-2013
</metadata>
<g transform="translate(0.000000,1024.000000) scale(0.100000,-0.100000)"
fill="#000000" stroke="none">
<path d="M0 5120 l0 -5120 5120 0 5120 0 0 5120 0 5120 -5120 0 -5120 0 0
-5120z m8250 2988 c214 -51 413 -189 531 -369 41 -61 990 -1751 1036 -1844
200 -402 69 -891 -307 -1141 -25 -17 -746 -424 -1604 -905 l-1558 -874 261 -3
261 -2 0 -300 0 -300 -3260 0 -3260 0 0 300 0 300 1020 0 c561 0 1020 3 1020
6 0 3 -109 200 -242 437 -134 238 -257 468 -275 512 -59 148 -76 309 -48 468
39 226 159 427 336 563 60 46 5365 3029 5504 3095 185 87 380 106 585 57z"/>
<path d="M7945 7518 c-61 -23 -5411 -3031 -5443 -3061 -56 -53 -87 -130 -86
-212 1 -38 7 -84 15 -101 8 -17 158 -288 334 -602 l320 -571 1012 -1 1012 0
2033 1141 c1118 627 2048 1153 2067 1167 81 65 120 200 88 302 -8 25 -240 448
-516 940 -540 964 -538 960 -638 994 -53 18 -153 20 -198 4z"/>
</g>
</svg>
